PathFileType	4	(X/Y/Z)	Patient4_TMGait_0pt6_01_right_26.trc.trc
DataRate	CameraRate	NumFrames	NumMarkers	Units	OrigDataRate	OrigDataStartFrame	OrigNumFrames
82.840236686391	82.840236686391	4	33	mm	82.840236686391	124	       141
Frame#	Time	Sacral			L.Shoulder			Chest			R.Shoulder			Neck			R.ASIS			L.ASIS			R.Thigh.Superior			R.Thigh.Lateral			R.Thigh.Inferior			R.Patella			L.Thigh.Superior			L.Thigh.Lateral			L.Thigh.Inferior			L.Patella			L.Shank.Superior			L.Shank.Lateral			L.Shank.Inferior			R.Shank.Superior			R.Shank.Lateral			R.Shank.Inferior			R.Heel			R.Midfoot.Superior			R.Midfoot.Lateral			R.Toe			L.Heel			L.Midfoot.Lateral			L.Midfoot.Superior			L.Toe			L.Elbow			L.Wrist			R.Elbow			R.Wrist			
		X1	Y1	Z1	X2	Y2	Z2	X3	Y3	Z3	X4	Y4	Z4	X5	Y5	Z5	X6	Y6	Z6	X7	Y7	Z7	X8	Y8	Z8	X9	Y9	Z9	X10	Y10	Z10	X11	Y11	Z11	X12	Y12	Z12	X13	Y13	Z13	X14	Y14	Z14	X15	Y15	Z15	X16	Y16	Z16	X17	Y17	Z17	X18	Y18	Z18	X19	Y19	Z19	X20	Y20	Z20	X21	Y21	Z21	X22	Y22	Z22	X23	Y23	Z23	X24	Y24	Z24	X25	Y25	Z25	X26	Y26	Z26	X27	Y27	Z27	X28	Y28	Z28	X29	Y29	Z29	X30	Y30	Z30	X31	Y31	Z31	X32	Y32	Z32	X33	Y33	Z33	

124	32.524785714286	742.858781905823	992.267629225382	448.942369410489	913.505727823997	1425.611994308391	275.507333970557	1006.596675269628	1360.257230155082	442.891035267955	909.196931048406	1430.192031521272	609.942351154495	883.481780655999	1485.324358687709	428.175896518844	965.506133442319	932.118296395631	574.821926391321	961.502609476472	955.962165388123	299.527105027257	1038.575493337180	754.166456029718	546.301705818086	986.238785151953	630.543140174344	612.679200899290	1077.047829221403	594.400091864491	534.944088036912	1105.726822452464	510.318231116340	545.896511300237	957.827940720903	726.886490553882	325.382195959237	835.497317092631	635.647171633050	266.746561884626	892.537538721376	540.265928972574	330.266427882614	875.801615965737	472.454091604851	339.656986875961	839.213860737339	409.131826720700	333.719747372438	731.463233081131	307.609485540372	288.292302327509	770.844727125586	191.485352460875	360.860226906746	1089.551778415661	421.255531231235	553.564824299101	1033.916196850664	307.034310333643	612.433239636859	1101.332774750422	221.562187259066	559.120662938619	1003.773444778555	42.865181503001	526.299663554561	1169.723216362763	105.926872792287	567.527998876150	1086.166056866037	38.498527455837	601.833769019627	1291.245611115275	62.078277765962	596.083313048763	629.793541703901	42.826107735440	413.363515150117	701.578646414159	35.751788663209	331.607492842046	786.593009479874	96.091743131527	354.040005035939	913.252723515755	41.365432639899	324.567279266843	990.334051295708	1091.911854207279	136.339887177926	1240.512360234820	1021.417887119043	137.656301192202	766.669888402058	1118.843065357222	719.868922011957	730.847850556185	861.083263137745	737.268096124514	
125	32.536857142857	744.537337371523	991.429520285154	451.584182079120	913.619392602041	1424.775370614391	277.640614544483	1007.342840040428	1359.903357984705	444.870664308112	909.951697279286	1429.436908846927	612.173100363356	883.905458794823	1484.585137144286	430.304172945680	967.592711445241	930.974681576889	576.623669279404	962.669936172094	955.256548105873	301.516696980226	1040.826280617553	752.881476380107	547.422764502240	986.943186607051	629.143763023571	612.411556619461	1077.789300041928	593.219872720089	534.848544814899	1105.258205933503	508.297545753541	544.900444427540	958.907710026626	726.140283873993	326.582230315248	836.033194157254	635.271934814977	268.311465038127	892.964901230157	539.392445764834	331.449047158428	875.984202282022	470.943989668120	340.634659116573	837.928448181506	408.085022653774	334.640885485987	728.287187165699	308.588642931434	289.107489550001	765.650204578234	191.439015546287	360.970267538881	1088.100071610712	418.648092838626	552.602367571482	1030.963462668325	305.163044265823	611.488428135216	1096.372759663848	218.732324655819	557.491784526680	995.291916923355	42.320177232867	525.143866288338	1162.204817592296	102.990264580413	565.509168674773	1077.599375176790	37.638808910650	600.803342196362	1283.304291420554	57.668080746287	594.510144021879	622.592120883112	44.254622949845	413.016771455944	694.446956367805	36.224582911088	331.485283169755	779.823895964479	96.283905567545	353.719172498426	906.137208513432	40.852284571955	324.523875981315	988.950758627869	1090.187257298966	138.864902577173	1238.409796404903	1016.490109748556	139.679762728434	770.076680547853	1116.539006759218	721.881811842753	736.594879406332	858.301568457310	738.586425240687	
126	32.548928571429	746.194208576522	990.929346452971	454.320153056014	913.724546521241	1424.249578627776	279.921227935325	1008.179970534721	1359.809434745153	446.935480538816	910.907433330091	1428.922076051033	614.558267473078	884.435911632739	1484.151924038174	432.578475435780	969.741055890062	930.130505196353	578.476282612980	963.866895057234	954.823111235586	303.535569004814	1043.129223028796	751.960242809016	548.375196229745	987.903921259105	628.257721892931	612.265284420790	1078.582807129739	592.418451966551	534.682513683202	1104.858470349146	506.592975277142	544.040110049737	960.253255777129	725.671543913789	327.799878366981	836.981542163363	634.966633923332	269.995731569485	894.101405389891	538.655311909492	332.623791905816	876.956077504621	469.438761319963	341.496940144816	837.250746480211	407.072450171021	335.523601784601	725.528679758419	309.845390406163	290.008723173588	760.736358764972	191.588122242587	361.039152224725	1086.680941545165	416.429126492557	551.849712364828	1028.137564538739	303.727538584215	610.947579559801	1091.364613981272	216.295829659631	556.151704153344	986.700067919147	41.957824291762	524.390346593405	1154.475280850886	100.632106067957	563.878423459192	1068.978901874649	37.068381483677	600.123879135411	1275.246401202571	54.032639568768	593.249011422928	615.464398955413	46.166693814558	412.665545402021	687.347549658957	36.904399826927	331.364676145963	773.242728676493	96.529388751763	353.294147557860	899.025813409930	40.323938328342	324.475812665925	987.210173098951	1088.597825995968	141.645273720852	1235.607665645731	1010.550117677530	141.766763874408	774.303549298105	1114.113384465099	724.046312562998	743.754263386028	855.299059016954	739.880696441402	
127	32.561000000000	747.817448123715	990.801162581268	457.123671164951	913.846140039505	1424.085253008726	282.329986852066	1009.100013271293	1360.004349326318	449.070760701111	912.064518224827	1428.704146155001	617.067315709419	885.064772321929	1484.064099669052	434.977169119199	971.905753621707	929.644236437829	580.393931194388	965.069465803531	954.707625863690	305.585910277649	1045.374932807503	751.415361590581	549.191966965533	989.057797993114	627.893142883411	612.337635731587	1079.336876884094	591.963495760398	534.540156439614	1104.426623728995	505.229083741605	543.452724169347	961.856251970008	725.524977608105	329.070089555035	838.404910066559	634.735982757097	271.772188639288	896.053194442881	538.081946305662	333.758713571962	878.824849369178	467.959145511086	342.165104840124	837.275192091635	406.115882739252	336.306661085272	723.274670365185	311.432115231907	290.967240307303	756.184667577303	191.987415848001	361.032850778160	1085.244070395715	414.646570842686	551.394283359208	1025.438967029633	302.731675771647	610.841312821540	1086.412811561605	214.321609127431	555.165053293567	978.292243968639	41.753314440165	523.996669134634	1146.778865360631	98.900767872136	562.684109188756	1060.580732303274	36.748279276606	599.764026252872	1267.316975763881	51.265582319222	592.346480822422	608.466291940859	48.686135473226	412.308527792547	680.305851666410	37.862287385493	331.244714810423	766.909538327431	96.836675839223	352.746645206485	891.912564927248	39.803700005393	324.430404079235	985.126773613191	1087.217257932095	144.691210222338	1232.030416770361	1003.647586619930	143.913201417739	779.291631911365	1111.689359776382	726.354231282418	752.309271607409	852.223123435834	741.173027638459	
